<?xml version="1.0" encoding="UTF-8"?>
<svg version="1.1" xmlns="http://www.w3.org/2000/svg" width="1024" height="1024">
<path d="M0 0 C337.92 0 675.84 0 1024 0 C1024 337.92 1024 675.84 1024 1024 C686.08 1024 348.16 1024 0 1024 C0 686.08 0 348.16 0 0 Z " fill="#F9F5F0" transform="translate(0,0)"/>
<path d="M0 0 C4.67730818 1.44416887 6.90043829 3.6543748 10.15625 7.19140625 C10.68605469 7.73990234 11.21585937 8.28839844 11.76171875 8.85351562 C14.62233302 11.8422688 17.36438646 14.92477321 20.078125 18.046875 C23.74435871 22.26415904 27.55974413 26.32635429 31.40625 30.37890625 C36.06505192 35.30728752 40.7077835 40.246164 45.28125 45.25390625 C46.13074219 46.18203125 46.98023438 47.11015625 47.85546875 48.06640625 C49.37790801 49.72988438 50.89847969 51.39498935 52.41650391 53.0625 C54.30323003 55.13159172 56.19786642 57.19320588 58.09375 59.25390625 C58.68559082 59.90633301 59.27743164 60.55875977 59.88720703 61.23095703 C60.44907715 61.8392334 61.01094727 62.44750977 61.58984375 63.07421875 C62.08540771 63.61578613 62.58097168 64.15735352 63.09155273 64.71533203 C64.82431892 66.28074258 66.55971319 67.12411984 68.65625 68.12890625 C73.37380298 63.43687859 78.08729611 58.74080013 82.7980957 54.04199219 C84.39841818 52.44667324 85.9996402 50.85225611 87.60180664 49.25878906 C89.9153437 46.95749294 92.22553899 44.65288554 94.53515625 42.34765625 C95.24273575 41.64523804 95.95031525 40.94281982 96.67933655 40.21911621 C100.62715502 36.27173613 104.38142451 32.2210213 108.02790833 27.99423218 C111.86689991 23.59652459 116.00553367 19.47588773 120.10864258 15.32641602 C121.18920738 14.22913891 122.264357 13.1265047 123.33422852 12.01879883 C124.89960044 10.39866864 126.48079713 8.79561236 128.06640625 7.1953125 C128.53844986 6.70059952 129.01049347 6.20588654 129.49684143 5.69618225 C131.7870939 3.42019864 133.63496989 2.13638055 136.69311523 1.06225586 C139.65625 1.12890625 139.65625 1.12890625 142.36962891 2.72900391 C144.80204227 5.2819212 145.93715216 7.26668674 147.2421875 10.52734375 C147.91399048 12.17645752 147.91399048 12.17645752 148.59936523 13.85888672 C149.07188721 15.06174316 149.54440918 16.26459961 150.03125 17.50390625 C150.54707936 18.78579411 151.06412063 20.06719486 151.58227539 21.34814453 C153.29540805 25.59985215 154.97723933 29.86363165 156.65625 34.12890625 C157.25920601 35.65758022 157.86223433 37.18622567 158.46533203 38.71484375 C160.66471969 44.29252467 162.86257224 49.87081262 165.0553894 55.45108032 C173.90195014 77.95974456 183.36264968 100.18560775 192.96875 122.37890625 C193.65618575 123.96825431 194.34360462 125.55760967 195.03100586 127.14697266 C195.69377594 128.67874197 196.35661622 130.21048091 197.01953125 131.7421875 C197.49672859 132.84481934 197.49672859 132.84481934 197.98356628 133.96972656 C199.79292188 138.14686074 201.61610898 142.31759392 203.44921875 146.484375 C204.18523212 148.17823934 204.92094841 149.87223281 205.65625 151.56640625 C205.97634033 152.28022461 206.29643066 152.99404297 206.6262207 153.72949219 C208.31957111 157.66477769 209.3300733 160.85133153 208.65625 165.12890625 C206.4530118 168.041504 205.25511676 169.02371099 201.61938477 169.66235352 C194.59839548 169.72806121 194.59839548 169.72806121 192.23901367 169.70532227 C190.22731701 169.69146526 188.22028743 169.72551841 186.20898438 169.76367188 C184.93474609 169.76173828 183.66050781 169.75980469 182.34765625 169.7578125 C181.18435791 169.7585376 180.02105957 169.7592627 178.82250977 169.76000977 C174.65073666 168.92848586 173.28884606 167.4240978 170.65625 164.12890625 C169.02783203 161.25366211 169.02783203 161.25366211 167.5390625 157.90625 C167.10981979 156.95165138 167.10981979 156.95165138 166.67190552 155.97776794 C165.6535948 153.70040593 164.65479287 151.41500234 163.65625 149.12890625 C162.82157393 147.23831822 161.98659451 145.34786409 161.15136719 143.45751953 C158.25409825 136.87915275 155.39031249 130.28645014 152.53125 123.69140625 C152.02478943 122.52491547 151.51832886 121.35842468 150.996521 120.15658569 C143.27292841 102.3559872 135.74000416 84.49444593 128.59814453 66.45239258 C127.70311178 64.1572703 127.70311178 64.1572703 126.65625 62.12890625 C107.18625 81.59890625 87.71625 101.06890625 67.65625 121.12890625 C59.68897727 114.29981534 59.68897727 114.29981534 56.15625 110.75390625 C55.4653125 110.06554687 54.774375 109.3771875 54.0625 108.66796875 C52.15421138 106.65435251 50.3421055 104.61424736 48.53637695 102.51123047 C44.58621571 97.98743026 40.41028914 93.72131304 36.16796875 89.47265625 C35.38355911 88.68491821 34.59914948 87.89718018 33.79096985 87.08557129 C32.14767939 85.43725398 30.5030644 83.79025619 28.85717773 82.14453125 C26.32833458 79.61347736 23.80762407 77.07450083 21.28710938 74.53515625 C19.68538458 72.93050158 18.08318809 71.32631758 16.48046875 69.72265625 C15.3477076 68.57911682 15.3477076 68.57911682 14.19206238 67.41247559 C13.14505913 66.37008728 13.14505913 66.37008728 12.0769043 65.30664062 C11.46292282 64.69123413 10.84894135 64.07582764 10.21635437 63.44177246 C8.74104089 61.914281 8.74104089 61.914281 6.65625 62.12890625 C6.40924788 62.62659767 6.16224575 63.12428909 5.90775871 63.63706207 C-0.11864241 75.77841987 -6.15413148 87.91522227 -12.19929695 100.04724884 C-15.12248968 105.91447821 -18.042697 111.78315348 -20.95605469 117.65527344 C-23.76950003 123.32573375 -26.59082177 128.99221092 -29.41756821 134.65605164 C-30.49281116 136.81390879 -31.56524404 138.97316863 -32.63476944 141.13386536 C-34.13720369 144.1679132 -35.64969609 147.19674801 -37.16455078 150.22460938 C-37.60116531 151.11221954 -38.03777985 151.99982971 -38.48762512 152.91433716 C-45.8294781 167.50204704 -45.8294781 167.50204704 -52.34375 170.12890625 C-56.47750804 170.6033339 -60.62303047 170.54517881 -64.78125 170.56640625 C-65.91369141 170.59927734 -67.04613281 170.63214844 -68.21289062 170.66601562 C-76.41585005 170.71918743 -76.41585005 170.71918743 -80.62890625 168.0390625 C-82.88202418 164.21543413 -83.04289027 162.53438631 -82.34375 158.12890625 C-81.01334395 154.51726294 -79.32963983 151.12341485 -77.59375 147.69140625 C-76.85318359 146.18610352 -76.85318359 146.18610352 -76.09765625 144.65039062 C-74.52772514 141.46900629 -72.93789473 138.2982178 -71.34375 135.12890625 C-70.33814989 133.11738331 -69.33293466 131.10566791 -68.328125 129.09375 C-66.89827789 126.23197886 -65.46664085 123.37140029 -64.02050781 120.51782227 C-60.66189847 113.86731898 -57.43591593 107.1590175 -54.23046875 100.43359375 C-48.29996109 87.99376343 -42.23771249 75.6204796 -36.15625 63.25390625 C-27.16123933 44.97309222 -27.16123933 44.97309222 -18.3046875 26.625 C-17.93093491 25.84467407 -17.55718231 25.06434814 -17.17210388 24.26037598 C-15.47621805 20.71937605 -13.78780959 17.1752603 -12.11450195 13.62353516 C-11.52853462 12.39728068 -10.94221452 11.17119469 -10.35546875 9.9453125 C-9.86522217 8.90834229 -9.37497559 7.87137207 -8.86987305 6.80297852 C-6.48863504 2.63057411 -4.95530825 0.19103408 0 0 Z " fill="#07253E" transform="translate(181.34375,406.87109375)"/>
<path d="M0 0 C4.81646907 2.9050004 8.47150096 6.50325012 11.7421875 11.05078125 C12.45181641 10.14585937 12.45181641 10.14585937 13.17578125 9.22265625 C18.94284339 2.2527176 23.3862392 -1.42303976 32.51953125 -2.3203125 C42.44441231 -2.78017987 51.02950341 -1.63056961 58.6171875 5.23828125 C64.74079667 11.95403187 66.87514102 20.02511378 66.85571289 28.94262695 C66.85559959 30.68386589 66.85559959 30.68386589 66.85548401 32.46028137 C66.85032272 33.70315414 66.84516144 34.94602692 66.83984375 36.2265625 C66.8384288 37.50685837 66.83701385 38.78715424 66.83555603 40.10624695 C66.83175147 43.49775165 66.82193893 46.88921302 66.81085205 50.28070068 C66.80059347 53.74637262 66.79604891 57.21205161 66.79101562 60.67773438 C66.77999505 67.46877115 66.76273472 74.25976688 66.7421875 81.05078125 C59.8121875 81.05078125 52.8821875 81.05078125 45.7421875 81.05078125 C45.7328418 79.41608887 45.72349609 77.78139648 45.71386719 76.09716797 C45.67395852 70.02511468 45.6081958 63.95356755 45.53466797 57.88183594 C45.50646372 55.25527454 45.48524654 52.62862835 45.47119141 50.00195312 C45.4497555 46.22351691 45.40309802 42.44609962 45.3515625 38.66796875 C45.35033386 37.4958786 45.34910522 36.32378845 45.34783936 35.11618042 C45.23500046 28.8175455 45.0323944 24.81113414 40.7421875 20.05078125 C37.05312044 16.88872377 33.66328018 16.52694341 28.95703125 16.69921875 C25.44543517 17.25661495 23.37827262 18.72851579 20.7421875 21.05078125 C17.412037 25.64409228 16.63360168 29.60344875 16.53686523 35.18652344 C16.5069474 36.71765778 16.5069474 36.71765778 16.47642517 38.27972412 C16.45971268 39.37464172 16.44300018 40.46955933 16.42578125 41.59765625 C16.3946096 43.287164 16.3946096 43.287164 16.36280823 45.01080322 C16.29744417 48.60740074 16.23848865 52.20407102 16.1796875 55.80078125 C16.1364898 58.23959085 16.0928751 60.67839309 16.04882812 63.1171875 C15.94177616 69.09497759 15.84047146 75.07284083 15.7421875 81.05078125 C9.1421875 81.05078125 2.5421875 81.05078125 -4.2578125 81.05078125 C-4.2671582 79.52267822 -4.27650391 77.9945752 -4.28613281 76.42016602 C-4.32616082 70.72260952 -4.39195621 65.02558569 -4.46533203 59.32836914 C-4.4934673 56.86782704 -4.51471864 54.40719581 -4.52880859 51.9465332 C-4.55034052 48.3987896 -4.59704623 44.8521093 -4.6484375 41.3046875 C-4.64966614 40.21370255 -4.65089478 39.12271759 -4.65216064 37.99867249 C-4.7946723 30.47943567 -5.76887076 23.43710706 -11.3828125 17.98828125 C-17.01781612 16.15078007 -22.17031321 16.16166118 -27.6328125 18.48828125 C-33.47641598 24.19275132 -34.71004639 30.90729704 -34.86346436 38.84620667 C-34.86530731 40.44987343 -34.86530731 40.44987343 -34.8671875 42.0859375 C-34.89199188 43.76483315 -34.89199188 43.76483315 -34.91729736 45.47764587 C-34.96555444 49.02291474 -34.98709956 52.56775532 -35.0078125 56.11328125 C-35.03599069 58.52931816 -35.06592068 60.94533532 -35.09765625 63.36132812 C-35.17130795 69.25777722 -35.22101902 75.15399165 -35.2578125 81.05078125 C-41.8578125 81.05078125 -48.4578125 81.05078125 -55.2578125 81.05078125 C-55.2578125 54.32078125 -55.2578125 27.59078125 -55.2578125 0.05078125 C-48.9878125 0.05078125 -42.7178125 0.05078125 -36.2578125 0.05078125 C-35.9278125 2.36078125 -35.5978125 4.67078125 -35.2578125 7.05078125 C-34.67773438 6.56867188 -34.09765625 6.0865625 -33.5 5.58984375 C-32.71882813 4.95820313 -31.93765625 4.3265625 -31.1328125 3.67578125 C-30.36710937 3.04929687 -29.60140625 2.4228125 -28.8125 1.77734375 C-20.88830814 -3.57814983 -8.68683105 -3.93330762 0 0 Z " fill="#07243C" transform="translate(459.2578125,476.94921875)"/>
<path d="M0 0 C9.0219031 5.78879789 12.91669592 15.03432073 16 25 C17.21679729 31.20566617 17 36.43145777 17 43 C-3.13 43 -23.26 43 -44 43 C-40.12332173 54.02196577 -40.12332173 54.02196577 -32 61 C-25.97664335 63.00778555 -18.33385217 63.28301295 -12.37109375 60.98828125 C-9.02783476 58.93799535 -7.20066723 57.30100085 -5 54 C-2.93701172 53.65942383 -2.93701172 53.65942383 -0.4296875 53.70703125 C0.46621094 53.71669922 1.36210938 53.72636719 2.28515625 53.73632812 C3.69087891 53.7740332 3.69087891 53.7740332 5.125 53.8125 C6.54232422 53.83280273 6.54232422 53.83280273 7.98828125 53.85351562 C10.32608779 53.88893694 12.66276237 53.93832729 15 54 C13.76658065 62.08102335 8.45294068 68.37409936 2.28515625 73.49609375 C-1.81375296 76.19366648 -6.3122115 77.64607351 -11 79 C-11.63550781 79.19207031 -12.27101563 79.38414062 -12.92578125 79.58203125 C-23.72493311 81.75813153 -36.1577107 80.00575741 -45.5 74 C-46.7375 73.01 -46.7375 73.01 -48 72 C-48.825 71.443125 -49.65 70.88625 -50.5 70.3125 C-58.75260312 62.67884212 -62.66707026 52.42888196 -63.3828125 41.328125 C-63.86444337 28.1303921 -61.54208994 17.43594822 -53 7 C-39.92479224 -6.95978841 -16.37948478 -10.1273786 0 0 Z " fill="#08243C" transform="translate(814,480)"/>
<path d="M0 0 C6.18079669 4.81487477 10.20850299 10.96905892 11.24111938 18.81280518 C11.384625 22.57429247 11.37132261 26.30294537 11.296875 30.06640625 C11.28752725 31.44215599 11.28042044 32.8179226 11.2754364 34.19369507 C11.2565199 37.78122471 11.20755801 41.36771113 11.1519165 44.95483398 C11.10038746 48.62860001 11.07785129 52.30253778 11.05273438 55.9765625 C10.99941852 63.16068261 10.91161526 70.34373298 10.80859375 77.52734375 C4.53859375 77.52734375 -1.73140625 77.52734375 -8.19140625 77.52734375 C-8.68640625 74.06234375 -8.68640625 74.06234375 -9.19140625 70.52734375 C-9.65289063 70.92566406 -10.114375 71.32398438 -10.58984375 71.734375 C-18.38252656 78.06400471 -26.15289225 80.16261734 -36.16015625 79.87890625 C-42.56353867 79.13624592 -48.10527254 77.21400505 -53.12890625 73.15234375 C-59.37659936 65.20073433 -61.08526706 59.5768931 -60.19140625 49.52734375 C-58.48658333 43.33452315 -54.60061242 38.86554266 -49.19140625 35.52734375 C-36.10722176 29.21265043 -23.44155908 28.17693016 -9.19140625 28.52734375 C-9.87657797 21.07607833 -9.87657797 21.07607833 -13.62890625 14.90234375 C-18.79118217 12.13234204 -23.45160323 12.0438034 -29.19140625 12.52734375 C-33.36771577 13.91944692 -34.75573218 14.66037425 -36.74609375 18.62109375 C-39.19140625 21.52734375 -39.19140625 21.52734375 -41.29248047 22.01513672 C-43.86534681 22.11838011 -46.37086455 22.05042518 -48.94140625 21.90234375 C-50.27365234 21.86173828 -50.27365234 21.86173828 -51.6328125 21.8203125 C-53.8214902 21.74970999 -56.00520193 21.65119902 -58.19140625 21.52734375 C-56.48219809 12.59570365 -53.64557221 6.05859317 -46.44140625 0.15234375 C-33.48496148 -8.54974602 -12.88938418 -8.66184998 0 0 Z " fill="#07233C" transform="translate(597.19140625,480.47265625)"/>
<path d="M0 0 C6.6 0 13.2 0 20 0 C20.33 14.52 20.66 29.04 21 44 C23.31 42.02 25.62 40.04 28 38 C36.12356212 33.01114576 45.67031447 32.60502798 54.8359375 34.625 C61.7983162 37.02434281 67.53221152 41.38689954 71.03598022 47.93658447 C74.412497 55.41915656 74.52126635 62.20353347 74.390625 70.3203125 C74.38314639 71.6736466 74.37746113 73.02699168 74.37347412 74.38034058 C74.35834469 77.90851786 74.31917698 81.43601576 74.2746582 84.96392822 C74.23342762 88.57742121 74.2154044 92.1910261 74.1953125 95.8046875 C74.15266659 102.87009299 74.08242476 109.93493009 74 117 C67.4 117 60.8 117 54 117 C53.98541748 115.47189697 53.97083496 113.94379395 53.95581055 112.36938477 C53.89761178 106.67188729 53.82037989 100.9747761 53.73754883 95.27758789 C53.70440088 92.81703994 53.67633778 90.3564178 53.65356445 87.89575195 C53.61983245 84.34815003 53.56750572 80.80122176 53.51171875 77.25390625 C53.50532883 76.1629213 53.4989389 75.07193634 53.49235535 73.94789124 C53.37591296 67.82757137 53.20811293 61.40439211 50 56 C44.99348709 52.98774176 39.78567397 52.39569363 34 53 C28.84355955 54.81992016 26.13266729 57.56205468 23 62 C20.48104655 67.63261382 20.6531676 73.24676889 20.5859375 79.3046875 C20.56657135 80.38380402 20.5472052 81.46292053 20.5272522 82.57473755 C20.46766058 86.00807895 20.42115239 89.44145424 20.375 92.875 C20.33680147 95.20834764 20.29774865 97.54168146 20.2578125 99.875 C20.16197566 105.58322059 20.07786898 111.29150717 20 117 C13.4 117 6.8 117 0 117 C0 78.39 0 39.78 0 0 Z " fill="#07233B" transform="translate(664,441)"/>
<path d="M0 0 C6.93 0 13.86 0 21 0 C21.0452628 11.70948703 21.08192313 23.41891554 21.10362434 35.12847042 C21.1140421 40.56623026 21.1281646 46.00392691 21.15087891 51.44165039 C21.17267891 56.69362061 21.18458372 61.9455302 21.18975449 67.19754219 C21.19343741 69.19690466 21.20062913 71.19626398 21.21146011 73.19560051 C21.22607018 76.00539075 21.22797398 78.81493348 21.22705078 81.62475586 C21.23424133 82.44331558 21.24143188 83.26187531 21.24884033 84.10523987 C21.21458325 93.79999411 19.41628916 102.38416334 12.515625 109.5390625 C5.80737838 115.45200153 -1.45134255 116.103576 -10.046875 116.1328125 C-12 116 -12 116 -14 115 C-14 109.39 -14 103.78 -14 98 C-11.75390625 97.57682292 -9.5078125 97.15364583 -7.26171875 96.73046875 C-4.70960726 95.90621167 -3.64683212 95.09274359 -2 93 C-0.7085181 89.12555431 -0.8226651 85.43758167 -0.79467773 81.39770508 C-0.78477814 80.51944565 -0.77487854 79.64118622 -0.76467896 78.73631287 C-0.73306881 75.8307465 -0.70830839 72.92516378 -0.68359375 70.01953125 C-0.66302381 68.00599236 -0.64202732 65.99245778 -0.62062073 63.97892761 C-0.56540423 58.67712903 -0.51599305 53.37529151 -0.46777344 48.07342529 C-0.41755537 42.66414928 -0.36187089 37.25492987 -0.30664062 31.84570312 C-0.19906418 21.2305153 -0.09812311 10.61527943 0 0 Z " fill="#09243D" transform="translate(625,477)"/>
<path d="M0 0 C0 5.94 0 11.88 0 18 C-3.2175 18.0928125 -3.2175 18.0928125 -6.5 18.1875 C-12.84093485 18.66099059 -17.39688612 19.46359792 -22 24 C-26.1677238 29.27772059 -28.07603822 33.95398736 -28.20532227 40.67675781 C-28.22526749 41.59741028 -28.24521271 42.51806274 -28.26576233 43.46661377 C-28.29083107 44.94493683 -28.29083107 44.94493683 -28.31640625 46.453125 C-28.33718735 47.46848328 -28.35796844 48.48384155 -28.37937927 49.52996826 C-28.44470597 52.76991073 -28.50368137 56.00993348 -28.5625 59.25 C-28.60570126 61.44792493 -28.64931607 63.64584178 -28.69335938 65.84375 C-28.80114744 71.2290856 -28.90034673 76.61448312 -29 82 C-35.6 82 -42.2 82 -49 82 C-49 55.27 -49 28.54 -49 1 C-42.4 1 -35.8 1 -29 1 C-28.67 3.64 -28.34 6.28 -28 9 C-27.0409375 7.63875 -27.0409375 7.63875 -26.0625 6.25 C-19.65878247 -1.3196605 -9.20574667 -3.06858222 0 0 Z " fill="#07233C" transform="translate(893,476)"/>
<path d="M0 0 C3.77669645 1.56903998 6.17152306 3.92394834 9.04394531 6.80102539 C9.53220795 7.28738968 10.02047058 7.77375397 10.52352905 8.27485657 C12.12998318 9.87761711 13.72914307 11.48744377 15.328125 13.09765625 C16.44305554 14.21377911 17.55835623 15.32953233 18.67401123 16.44493103 C21.00714154 18.77962356 23.3368783 21.11763266 25.6640625 23.45825195 C28.65410101 26.46532917 31.65072974 29.46573199 34.64967728 32.46392155 C36.95070487 34.76522032 39.24912279 37.0691102 41.54665375 39.37389946 C42.65131003 40.48174709 43.75658114 41.588982 44.8624649 42.69560432 C46.4020609 44.23735618 47.93832598 45.78234758 49.47363281 47.32836914 C50.34981262 48.20836075 51.22599243 49.08835236 52.12872314 49.99501038 C54 52 54 52 54 53 C27.6 53 1.2 53 -26 53 C-24.49631834 48.48895501 -23.01650863 44.85314507 -20.83984375 40.703125 C-20.53366119 40.11583115 -20.22747864 39.52853729 -19.91201782 38.92344666 C-19.2600549 37.67383904 -18.60616038 36.42523756 -17.95046997 35.17758179 C-16.24735474 31.93672175 -14.55810648 28.68864128 -12.8671875 25.44140625 C-12.53358719 24.80169388 -12.19998688 24.16198151 -11.85627747 23.50288391 C-7.80225334 15.71954497 -3.88660999 7.86801535 0 0 Z " fill="#072640" transform="translate(204,524)"/>
<path d="M0 0 C6.93 0 13.86 0 21 0 C21 26.73 21 53.46 21 81 C14.07 81 7.14 81 0 81 C0 54.27 0 27.54 0 0 Z " fill="#072741" transform="translate(906,477)"/>
<path d="M0 0 C5.52712995 4.91792725 6.90503575 7.33525027 8 15 C-5.53 15 -19.06 15 -33 15 C-29.82999346 5.48998039 -27.72932361 2.4677485 -19.625 -2.4375 C-12.68367531 -3.92492672 -6.17470013 -3.72812083 0 0 Z " fill="#F4F2EE" transform="translate(803,494)"/>
<path d="M0 0 C0.41124184 6.44278881 -0.24348225 12.81069565 -4.6171875 17.87109375 C-9.54062594 22.27683158 -13.35299337 23.3181711 -20.0390625 23.21875 C-23.88769982 22.78941994 -26.15805491 20.84194509 -28.8125 18.1875 C-30.46290867 15.1472735 -30.54728027 13.42050168 -30 10 C-26.60423432 4.58799844 -23.11351512 2.57540582 -17 1 C-11.33389553 -0.15420647 -5.75553484 -0.10422498 0 0 Z " fill="#F6F3EF" transform="translate(588,522)"/>
<path d="M0 0 C3.75212276 2.01502889 5.63644095 3.45466142 8 7 C8.65237324 11.37433428 9.03401151 16.01269906 6.94921875 20.01953125 C5.19367363 22.14793551 3.47623989 23.76188006 1 25 C-3.52589985 25.41654299 -7.66641891 25.51073318 -11.9375 23.875 C-15.59374137 20.55114421 -16.83009043 17.35927659 -17.4375 12.5 C-16.79222346 7.33778768 -14.70698109 4.42248424 -10.75 1.125 C-7.10646236 -0.36553812 -3.84275621 -0.69184652 0 0 Z " fill="#08223A" transform="translate(920,440)"/>
<path d="M0 0 C3.70390021 2.02666238 5.65363011 3.48044516 8 7 C8.6772783 12.08746258 8.82467221 16.55682364 6.25 21.0625 C2.8420455 23.99712748 1.10495489 24.89954956 -3.4375 25.3125 C-8.73542952 24.84776934 -10.92278833 23.28100848 -14.3125 19.25 C-16.31986327 15.38396703 -16.61454266 13.30179863 -16 9 C-12.32317126 1.9187002 -8.0382172 -0.98714948 0 0 Z " fill="#EE1B28" transform="translate(638,440)"/>
<path d="M0 0 C6.93 0 13.86 0 21 0 C21 26.73 21 53.46 21 81 C14.07 81 7.14 81 0 81 C0 54.27 0 27.54 0 0 Z M2 1 C2 26.74 2 52.48 2 79 C7.61 79 13.22 79 19 79 C19 53.26 19 27.52 19 1 C13.39 1 7.78 1 2 1 Z " fill="#0E1D33" transform="translate(906,477)"/>
<path d="M0 0 C0.99 0 1.98 0 3 0 C3 38.61 3 77.22 3 117 C9.6 117 16.2 117 23 117 C23 100.83 23 84.66 23 68 C23.33 68 23.66 68 24 68 C24 84.5 24 101 24 118 C16.41 118 8.82 118 1 118 C-0.21047233 115.57905534 -0.12317555 114.06055681 -0.12025452 111.35568237 C-0.12162918 110.37689117 -0.12300385 109.39809998 -0.12442017 108.38964844 C-0.12082489 107.31215332 -0.11722961 106.2346582 -0.11352539 105.12451172 C-0.11367142 103.99280548 -0.11381744 102.86109924 -0.1139679 101.69509888 C-0.11326907 97.93994251 -0.10547807 94.18483524 -0.09765625 90.4296875 C-0.09579196 87.83179756 -0.09436811 85.23390726 -0.09336853 82.63601685 C-0.08993546 76.48786217 -0.0820473 70.33972787 -0.07201904 64.19158089 C-0.06085067 57.19287932 -0.05534562 50.19417692 -0.05032361 43.19546866 C-0.0398645 28.79696958 -0.02226956 14.39848542 0 0 Z " fill="#DCDEDD" transform="translate(661,441)"/>
<path d="M0 0 C6.27516747 5.1842579 12.00092731 10.85465834 17.74609375 16.61328125 C18.76727468 17.63378745 19.78860392 18.65414526 20.81007385 19.67436218 C22.93547462 21.79829792 25.05907898 23.92400888 27.18139648 26.05102539 C29.90738027 28.7827496 32.63788825 31.50990091 35.36971951 34.23577595 C37.47236908 36.33482465 39.57264692 38.43623338 41.67219734 40.53838158 C42.67903229 41.54588486 43.68661406 42.55264238 44.69494438 43.55864906 C46.09518389 44.95636519 47.49190155 46.3576069 48.88842773 47.7590332 C49.68449936 48.55590042 50.48057098 49.35276764 51.30076599 50.17378235 C53 52 53 52 53 53 C26.6 53 0.2 53 -27 53 C-26.01 50.03 -26.01 50.03 -25 47 C-24.01 46.505 -24.01 46.505 -23 46 C-23.33 47.32 -23.66 48.64 -24 50 C-0.24 50 23.52 50 48 50 C32.20854365 34.28776023 32.20854365 34.28776023 16.40625 18.58642578 C13.359375 15.54858398 13.359375 15.54858398 11.93554688 14.12643433 C10.9373812 13.13134548 9.93723299 12.13824298 8.93554688 11.146698 C7.42111157 9.64683585 5.91303189 8.14084612 4.40625 6.63330078 C3.55353516 5.78502716 2.70082031 4.93675354 1.82226562 4.06277466 C0 2 0 2 0 0 Z " fill="#031329" transform="translate(205,524)"/>
<path d="M0 0 C3.17584647 2.59841984 4.00243888 5.05308124 5 9 C5.26828537 12.84308105 5.23271653 16.67264751 5.1953125 20.5234375 C5.19106766 22.17540634 5.19106766 22.17540634 5.18673706 23.86074829 C5.17557478 27.36561108 5.15047711 30.87021492 5.125 34.375 C5.11496511 36.75650672 5.10584015 39.13801745 5.09765625 41.51953125 C5.07564832 47.34645339 5.04114537 53.17318284 5 59 C10.94 59 16.88 59 23 59 C23 42.5 23 26 23 9 C23.33 9 23.66 9 24 9 C24 26.16 24 43.32 24 61 C17.07 61 10.14 61 3 61 C2.98018066 59.36530762 2.96036133 57.73061523 2.93994141 56.04638672 C2.86379989 49.97445418 2.77509507 43.90275859 2.68261719 37.83105469 C2.64436288 35.20447471 2.60950385 32.57784298 2.578125 29.95117188 C2.53239813 26.17298909 2.47441493 22.39516149 2.4140625 18.6171875 C2.40251129 17.44509735 2.39096008 16.2730072 2.37905884 15.06539917 C2.24356235 7.34912122 2.24356235 7.34912122 0 0 Z " fill="#161F2F" transform="translate(502,497)"/>
<path d="M0 0 C7.97235926 -0.59054513 14.35345218 1.56896812 21 6 C20.67 6.66 20.34 7.32 20 8 C18.88625 7.2884375 18.88625 7.2884375 17.75 6.5625 C13.31959555 4.04522475 9.3095966 3.79167176 4.25 3.4375 C3.07953125 3.35371094 1.9090625 3.26992188 0.703125 3.18359375 C-0.18890625 3.12300781 -1.0809375 3.06242187 -2 3 C-1.34 2.67 -0.68 2.34 0 2 C0 1.34 0 0.68 0 0 Z " fill="#ECEEEE" transform="translate(442,472)"/>
<path d="M0 0 C6.625 -0.125 6.625 -0.125 10 1 C10 6.94 10 12.88 10 19 C7.94720641 14.89441282 7.7783058 13.19793315 7.875 8.75 C7.89304687 7.67234375 7.91109375 6.5946875 7.9296875 5.484375 C7.96449219 4.25460937 7.96449219 4.25460937 8 3 C7.21238281 3.0309375 6.42476562 3.061875 5.61328125 3.09375 C3 3 3 3 1.1875 1.5 C0.5996875 0.7575 0.5996875 0.7575 0 0 Z " fill="#041122" transform="translate(883,475)"/>
<path d="M0 0 C3.3 0 6.6 0 10 0 C10.08159574 4.16138263 9.98248524 7.9472484 9 12 C8.34 11.67 7.68 11.34 7 11 C7.33 8.36 7.66 5.72 8 3 C5.03 3 2.06 3 -1 3 C-0.67 2.01 -0.34 1.02 0 0 Z " fill="#EBEBEB" transform="translate(578,522)"/>
<path d="M0 0 C0.33 0 0.66 0 1 0 C1 2.64 1 5.28 1 8 C7.6 8 14.2 8 21 8 C21 8.33 21 8.66 21 9 C14.07 9 7.14 9 0 9 C-0.66 7.02 -1.32 5.04 -2 3 C-1.34 2.01 -0.68 1.02 0 0 Z " fill="#FDFDFC" transform="translate(588,550)"/>
<path d="M0 0 C0 0.99 0 1.98 0 3 C-1.33333333 4.33333333 -2.66666667 5.66666667 -4 7 C-4.28875 7.886875 -4.5775 8.77375 -4.875 9.6875 C-5.24625 10.450625 -5.6175 11.21375 -6 12 C-9.125 12.8125 -9.125 12.8125 -12 13 C-8.19524578 8.43969176 -4.25030379 4.14910608 0 0 Z " fill="#1E2C3B" transform="translate(299,425)"/>
<path d="M0 0 C1.35304209 4.05912626 0.15216503 5.77149591 -1.4375 9.6875 C-1.91058594 10.86699219 -2.38367188 12.04648437 -2.87109375 13.26171875 C-3.24363281 14.16535156 -3.61617187 15.06898438 -4 16 C-5.1796875 14.390625 -5.1796875 14.390625 -6 12 C-4.8828125 8.984375 -4.8828125 8.984375 -3.125 5.75 C-2.55007812 4.67234375 -1.97515625 3.5946875 -1.3828125 2.484375 C-0.92648438 1.66453125 -0.47015625 0.8446875 0 0 Z " fill="#E6E8E9" transform="translate(174,495)"/>
<path d="M0 0 C1.9375 0.6875 1.9375 0.6875 4 2 C4.5 4.5 4.5 4.5 5 7 C6.81601365 8.20003343 6.81601365 8.20003343 9 9 C10.35113205 9.97581759 11.68946944 10.97029741 13 12 C8.13634454 11.58311525 6.17061868 9.58780535 3 6 C0 2.37931034 0 2.37931034 0 0 Z " fill="#091324" transform="translate(539,545)"/>
<path d="M0 0 C1.33804687 0.04060547 1.33804687 0.04060547 2.703125 0.08203125 C3.37859375 0.11683594 4.0540625 0.15164063 4.75 0.1875 C4.75 0.5175 4.75 0.8475 4.75 1.1875 C-0.17737019 3.15844808 -4.03020872 3.3674928 -9.25 3.1875 C-6.10408067 0.38704377 -4.182936 -0.16511589 0 0 Z " fill="#E9E9E9" transform="translate(440.25,492.8125)"/>
<path d="M0 0 C1.26706235 3.80118706 0.57172296 5.3850372 -1 9 C-1.99 9.33 -2.98 9.66 -4 10 C-3.43454163 6.04179141 -2.19097652 3.3340947 0 0 Z " fill="#122134" transform="translate(147,467)"/>
<path d="M0 0 C2.16321167 3.24481751 3.6314591 6.35055759 5 10 C4.67 10.99 4.34 11.98 4 13 C0.90576832 9.90576832 0.06293995 6.4476188 -0.125 2.125 C-0.08375 1.42375 -0.0425 0.7225 0 0 Z " fill="#E7E9EB" transform="translate(315,485)"/>
</svg>
